<svg width="62" height="58" viewBox="0 0 62 58" fill="none" xmlns="http://www.w3.org/2000/svg">
<path d="M3.29412 31H9.88235L13.1765 38.9412L9.05882 41.3235C10.8228 44.7724 13.7175 47.5638 17.2941 49.2647L19.7647 45.2941L28 48.4706V54.8235C28 55.666 27.6529 56.4739 27.0352 57.0696C26.4174 57.6653 25.5795 58 24.7059 58C18.2811 57.6235 12.2214 54.9927 7.67007 50.6039C3.11871 46.2151 0.390435 40.3718 0 34.1765C0 33.334 0.347058 32.5261 0.964825 31.9304C1.58259 31.3347 2.42046 31 3.29412 31Z" fill="#F7FCF9"/>
<path fill-rule="evenodd" clip-rule="evenodd" d="M22.7452 28.0351L19.7222 37.0556L30.6514 34.7426C35.1026 36.892 40.2852 37.5392 45.2355 36.5637C50.1859 35.5883 54.5671 33.0566 57.5647 29.4394C60.5623 25.8222 61.9721 21.3657 61.5322 16.8984C61.0923 12.4311 58.8324 8.25706 55.1729 5.15235C51.5133 2.04765 46.7031 0.223562 41.6365 0.0192327C36.57 -0.185097 31.5919 1.24424 27.6279 4.04149C23.6638 6.83874 20.9836 10.8135 20.0855 15.2269C19.1874 19.6402 20.1325 24.1917 22.7452 28.0351ZM40.551 24.1667L34.9699 14.5L29.3889 24.1667H40.551ZM40.6667 14.5L46.2477 24.1667L51.8288 14.5L40.6667 14.5Z" fill="#F7FCF9"/>
</svg>
