<svg width="103" height="90" viewBox="0 0 103 90" fill="none" xmlns="http://www.w3.org/2000/svg">
<path d="M9.12 68.512C10.304 68.512 11.368 68.752 12.312 69.232C13.256 69.696 13.992 70.352 14.52 71.2C15.064 72.048 15.336 73.008 15.336 74.08C15.336 75.152 15.064 76.112 14.52 76.96C13.992 77.808 13.256 78.472 12.312 78.952C11.368 79.416 10.304 79.648 9.12 79.648H5.232V85H1.704V68.512H9.12ZM8.76 76.408C9.624 76.408 10.328 76.2 10.872 75.784C11.416 75.352 11.688 74.784 11.688 74.08C11.688 73.376 11.416 72.816 10.872 72.4C10.328 71.968 9.624 71.752 8.76 71.752H5.232V76.408H8.76ZM21.6274 72.304C22.6994 72.304 23.6514 72.52 24.4834 72.952C25.3154 73.384 25.9554 74 26.4034 74.8C26.8674 75.584 27.0994 76.512 27.0994 77.584V85H23.7154V83.752C23.2834 84.232 22.7314 84.608 22.0594 84.88C21.4034 85.152 20.7314 85.288 20.0434 85.288C19.1634 85.288 18.3714 85.128 17.6674 84.808C16.9634 84.472 16.4034 84.008 15.9874 83.416C15.5874 82.808 15.3874 82.112 15.3874 81.328C15.3874 80.528 15.6114 79.816 16.0594 79.192C16.5234 78.568 17.1474 78.08 17.9314 77.728C18.7154 77.376 19.5794 77.2 20.5234 77.2C21.5954 77.2 22.6594 77.416 23.7154 77.848V77.584C23.7154 76.864 23.4754 76.272 22.9954 75.808C22.5154 75.344 21.7954 75.112 20.8354 75.112C19.8434 75.112 18.7714 75.408 17.6194 76L16.4434 73.672C18.2354 72.76 19.9634 72.304 21.6274 72.304ZM20.8354 82.864C21.5394 82.864 22.1634 82.712 22.7074 82.408C23.2514 82.088 23.5874 81.648 23.7154 81.088V79.96C22.8994 79.64 22.0034 79.48 21.0274 79.48C20.3874 79.48 19.8434 79.648 19.3954 79.984C18.9474 80.32 18.7234 80.736 18.7234 81.232C18.7234 81.728 18.9234 82.128 19.3234 82.432C19.7234 82.72 20.2274 82.864 20.8354 82.864ZM35.5159 85.288C34.3159 85.288 33.1959 84.992 32.1559 84.4C31.1319 83.808 30.3079 83.016 29.6839 82.024C29.0759 81.016 28.7719 79.936 28.7719 78.784C28.7719 77.632 29.0759 76.56 29.6839 75.568C30.3079 74.576 31.1399 73.784 32.1799 73.192C33.2199 72.6 34.3479 72.304 35.5639 72.304C36.5399 72.304 37.4359 72.488 38.2519 72.856C39.0839 73.224 39.8039 73.744 40.4119 74.416L38.0839 76.408C37.7799 76.056 37.3959 75.776 36.9319 75.568C36.4839 75.36 36.0199 75.256 35.5399 75.256C34.9479 75.256 34.3879 75.416 33.8599 75.736C33.3479 76.056 32.9399 76.488 32.6359 77.032C32.3319 77.56 32.1799 78.136 32.1799 78.76C32.1799 79.4 32.3319 79.992 32.6359 80.536C32.9399 81.08 33.3479 81.52 33.8599 81.856C34.3879 82.176 34.9479 82.336 35.5399 82.336C36.0199 82.336 36.4919 82.232 36.9559 82.024C37.4359 81.8 37.8359 81.504 38.1559 81.136L40.4839 83.104C39.8599 83.792 39.1239 84.328 38.2759 84.712C37.4439 85.096 36.5239 85.288 35.5159 85.288ZM42.3864 68.224H45.8904V77.968L50.5224 72.592H54.5544L49.7064 78.088L54.4824 85H50.4744L47.3784 80.344L45.8904 81.976V85H42.3864V68.224ZM70.3438 74.08C70.3438 75.36 69.9678 76.472 69.2158 77.416C68.4638 78.344 67.4638 78.992 66.2158 79.36L70.1758 85H66.1438L62.3758 79.648H60.2398V85H56.7118V68.512H64.1278C65.3118 68.512 66.3758 68.752 67.3198 69.232C68.2638 69.696 68.9998 70.352 69.5278 71.2C70.0718 72.048 70.3438 73.008 70.3438 74.08ZM60.2398 76.408H63.7678C64.6318 76.408 65.3358 76.2 65.8798 75.784C66.4238 75.352 66.6958 74.784 66.6958 74.08C66.6958 73.376 66.4238 72.816 65.8798 72.4C65.3358 71.968 64.6318 71.752 63.7678 71.752H60.2398V76.408ZM77.1306 71.704H71.9946V68.512H85.8186V71.704H80.6586V85H77.1306V71.704ZM95.4287 85.288C93.8767 85.288 92.4287 84.904 91.0847 84.136C89.7407 83.352 88.6687 82.304 87.8687 80.992C87.0687 79.68 86.6687 78.264 86.6687 76.744C86.6687 75.224 87.0687 73.816 87.8687 72.52C88.6687 71.208 89.7407 70.168 91.0847 69.4C92.4287 68.616 93.8767 68.224 95.4287 68.224C96.6607 68.224 97.8287 68.472 98.9327 68.968C100.037 69.448 100.997 70.12 101.813 70.984L99.2447 73.288C98.7647 72.712 98.1887 72.264 97.5167 71.944C96.8607 71.608 96.1647 71.44 95.4287 71.44C94.5327 71.44 93.6847 71.688 92.8847 72.184C92.1007 72.664 91.4767 73.312 91.0127 74.128C90.5487 74.944 90.3167 75.816 90.3167 76.744C90.3167 77.688 90.5487 78.568 91.0127 79.384C91.4767 80.2 92.1007 80.856 92.8847 81.352C93.6847 81.832 94.5327 82.072 95.4287 82.072C96.1647 82.072 96.8607 81.912 97.5167 81.592C98.1887 81.256 98.7727 80.8 99.2687 80.224L101.813 82.528C100.997 83.392 100.029 84.072 98.9087 84.568C97.8047 85.048 96.6447 85.288 95.4287 85.288Z" fill="#F7FCF9"/>
<path d="M24.2941 31H30.8824L34.1765 38.9412L30.0588 41.3235C31.8228 44.7724 34.7175 47.5638 38.2941 49.2647L40.7647 45.2941L49 48.4706V54.8235C49 55.666 48.6529 56.4739 48.0352 57.0696C47.4174 57.6653 46.5795 58 45.7059 58C39.2811 57.6235 33.2214 54.9927 28.6701 50.6039C24.1187 46.2151 21.3904 40.3718 21 34.1765C21 33.334 21.3471 32.5261 21.9648 31.9304C22.5826 31.3347 23.4205 31 24.2941 31Z" fill="#F7FCF9"/>
<path fill-rule="evenodd" clip-rule="evenodd" d="M43.7452 28.0351L40.7222 37.0556L51.6514 34.7426C56.1026 36.892 61.2852 37.5392 66.2355 36.5637C71.1859 35.5883 75.5671 33.0566 78.5647 29.4394C81.5623 25.8222 82.9721 21.3657 82.5322 16.8984C82.0923 12.4311 79.8324 8.25706 76.1729 5.15235C72.5133 2.04765 67.7031 0.223562 62.6365 0.0192327C57.57 -0.185097 52.5919 1.24424 48.6279 4.04149C44.6638 6.83874 41.9836 10.8135 41.0855 15.2269C40.1874 19.6402 41.1325 24.1917 43.7452 28.0351ZM61.551 24.1667L55.9699 14.5L50.3889 24.1667H61.551ZM61.6667 14.5L67.2477 24.1667L72.8288 14.5L61.6667 14.5Z" fill="#F7FCF9"/>
</svg>
